<?xml version="1.0" encoding="UTF-8" standalone="no"?>
<!-- Generator: Adobe Illustrator 16.0.4, SVG Export Plug-In . SVG Version: 6.00 Build 0)  -->

<svg
   xmlns:dc="http://purl.org/dc/elements/1.1/"
   xmlns:cc="http://creativecommons.org/ns#"
   xmlns:rdf="http://www.w3.org/1999/02/22-rdf-syntax-ns#"
   xmlns:svg="http://www.w3.org/2000/svg"
   xmlns="http://www.w3.org/2000/svg"
   xmlns:sodipodi="http://sodipodi.sourceforge.net/DTD/sodipodi-0.dtd"
   xmlns:inkscape="http://www.inkscape.org/namespaces/inkscape"
   version="1.2"
   id="Layer_1"
   x="0px"
   y="0px"
   width="270px"
   height="10px"
   viewBox="1.5 0 270 10"
   overflow="scroll"
   xml:space="preserve"
   inkscape:version="0.48.5 r10040"
   sodipodi:docname="brand2.svg"
   inkscape:export-filename="D:\Data\Downloads\brand-xxxlg.png"
   inkscape:export-xdpi="1815.827"
   inkscape:export-ydpi="1815.827"><metadata
   id="metadata3056"><rdf:RDF><cc:Work
       rdf:about=""><dc:format>image/svg+xml</dc:format><dc:type
         rdf:resource="http://purl.org/dc/dcmitype/StillImage" /><dc:title></dc:title></cc:Work></rdf:RDF></metadata><defs
   id="defs3054"><filter
     id="filter3102"
     inkscape:label="Bulger"><feMorphology
       id="feMorphology3104"
       operator="dilate"
       radius="0.29999999999999999" /></filter><filter
     id="filter3106"
     inkscape:label="Thinner"><feMorphology
       id="feMorphology3108"
       radius="0.14999999999999999" /></filter></defs><sodipodi:namedview
   pagecolor="#ffffff"
   bordercolor="#666666"
   borderopacity="1"
   objecttolerance="10"
   gridtolerance="10"
   guidetolerance="10"
   inkscape:pageopacity="0"
   inkscape:pageshadow="2"
   inkscape:window-width="1280"
   inkscape:window-height="961"
   id="namedview3052"
   showgrid="false"
   inkscape:zoom="6.3482475"
   inkscape:cx="72.342647"
   inkscape:cy="-7.4541981"
   inkscape:window-x="-8"
   inkscape:window-y="-8"
   inkscape:window-maximized="1"
   inkscape:current-layer="Layer_1" />


<path
   style="fill:#ffffff"
   d="M 56.33228,10.587985 C 55.266726,10.447479 54.358321,9.9068376 53.789475,9.074534 53.415791,8.5276974 53.115701,7.7401869 52.970818,6.9257256 c -0.12023,-0.6781727 -0.121444,-2.5091292 0,-3.1556814 0.157028,-0.8450836 0.460517,-1.629938 0.855941,-2.2137859 0.437564,-0.64606648 1.163681,-1.16888004 1.97578,-1.42255085 0.334701,-0.1045759 0.444365,-0.11313774 1.44859,-0.11313774 0.99038,0 1.120447,0.0098412 1.470086,0.11106097 0.658957,0.19082087 1.105022,0.45605808 1.596509,0.94933512 0.586334,0.5885297 0.748219,0.901384 0.747855,1.4452817 l 0,0.3915904 -0.832745,0.3748226 C 59.414298,3.661145 59.393653,3.6674516 59.013895,3.6656457 L 58.627581,3.663824 58.46266,3.4206399 C 58.14241,2.9484601 57.6304,2.5943232 57.268131,2.5943232 c -0.238881,0 -0.661751,0.2323075 -0.914112,0.5021462 -0.259892,0.2778286 -0.510796,0.7855065 -0.65155,1.3183041 -0.28503,1.0791897 0.03036,2.4241411 0.732553,3.1266489 0.280901,0.2808331 0.601272,0.4677544 0.805056,0.4697351 0.306161,0.00303 0.868571,-0.4158623 1.195256,-0.8901321 l 0.184352,-0.2677147 0.396395,0 c 0.369313,0 0.451774,0.020924 1.211167,0.3072181 l 0.815013,0.3072193 0,0.4533134 c 0,0.4479104 0,0.457915 -0.217386,0.8391413 -0.296931,0.5271941 -0.962083,1.1977505 -1.425272,1.4367162 -0.61208,0.315822 -0.942166,0.382339 -1.978937,0.398801 -0.504603,0.008 -0.993538,0.0045 -1.086564,-0.0077 z m 31.821733,-0.03843 C 87.723857,10.459473 87.242087,10.277562 86.917344,10.082652 86.287169,9.7042967 85.690755,9.0059044 85.393216,8.2975006 85.271771,8.0098775 85.254647,7.9116447 85.266792,7.5957627 l 0.01458,-0.367299 0.837238,-0.3083014 c 0.764371,-0.2814172 0.870392,-0.3083014 1.215781,-0.3083014 l 0.37842,0 0.157878,0.2776536 c 0.234388,0.4118997 0.648149,0.8026023 1.064582,1.0053575 0.303855,0.1479012 0.388866,0.1689596 0.601273,0.1489237 C 89.924558,8.0071927 90.294357,7.7729478 90.46195,7.4577702 90.536025,7.319275 90.407295,7.1242922 90.092267,6.8980241 89.830798,6.7098666 89.490874,6.5691099 88.299261,6.1555235 87.283863,5.8030783 86.794442,5.5432721 86.38821,5.1409835 85.773823,4.532588 85.614367,4.0237514 85.655779,2.8041647 c 0.02672,-0.7808772 0.102012,-1.0793501 0.379999,-1.5133403 0.33203,-0.51747861 1.011026,-0.98092656 1.732406,-1.18253045 0.263291,-0.07362018 0.50023,-0.0877197 1.472758,-0.0877197 1.150808,0 1.161859,9.0231e-4 1.590072,0.14133224 0.817929,0.26805959 1.406205,0.77044133 1.780376,1.52064401 0.192975,0.386876 0.202812,0.4274348 0.202812,0.840533 l 0,0.4340439 -0.844039,0.2821567 C 91.234088,3.4853613 91.079732,3.521236 90.763005,3.5198273 L 90.399765,3.518249 90.255003,3.2676908 C 90.016971,2.8561289 89.458327,2.514661 89.074927,2.5463956 c -0.184838,0.01529 -0.531199,0.2013149 -0.616088,0.3308731 -0.07287,0.1114982 -0.07044,0.1241818 0.05344,0.2539198 0.188604,0.196825 0.627625,0.3961373 1.606104,0.729155 1.505789,0.5124933 2.208953,0.9333774 2.637653,1.5788257 0.38425,0.5783053 0.439021,0.8107694 0.441693,1.8729022 0,0.8165964 -0.01214,0.9548524 -0.104443,1.2574884 -0.29098,0.9247427 -1.077698,1.6206742 -2.162561,1.9129292 -0.327779,0.08831 -0.543343,0.106252 -1.424423,0.118457 -0.739717,0.01021 -1.128462,-0.0045 -1.352163,-0.05135 z m -83.0068208,-5.24147 0,-5.16679837 1.3038283,0 1.3037066,0 0,1.88322487 0,1.883225 1.6176406,0 1.6176413,0 0,-1.883225 0,-1.88322487 1.303829,0 1.303709,0 0,5.16679837 0,5.166796 -1.303709,0 -1.303829,0 0,-2.028089 0,-2.0280888 -1.6176413,0 -1.6176406,0 0,2.0280888 0,2.028089 -1.3037066,0 -1.3038283,0 0,-5.166796 z m 12.4582658,0 0,-5.16679837 3.645763,0 3.645641,0 0,1.25548327 0,1.2554845 -2.341934,0 -2.341936,0 0,0.6277417 0,0.6277404 1.37621,0 1.376208,0 0,1.2554847 0,1.255482 -1.376208,0 -1.37621,0 0,0.7726068 0,0.7726042 2.486819,0 2.486817,0 0,1.2554846 0,1.2554822 -3.790645,0 -3.790525,0 0,-5.166796 z m 11.106218,0 0,-5.16679837 2.818483,0 c 3.275115,0 3.402875,0.011173 4.11624,0.36117947 0.700612,0.34372796 1.126762,0.8653672 1.348641,1.650688 0.05465,0.1924433 0.08744,0.5584199 0.104442,1.1541148 0.02186,0.777003 0.01458,0.9158164 -0.07529,1.270483 -0.05587,0.218996 -0.170145,0.5393276 -0.255155,0.7118529 -0.178888,0.3634869 -0.684583,0.9323876 -0.985644,1.1087929 l -0.207913,0.121872 0.509338,1.0477659 c 1.097251,2.2566168 1.028635,2.0885062 1.028635,2.5211844 l 0,0.385661 -1.412885,0 -1.413007,0 -0.892256,-1.7866448 -0.892253,-1.7866511 -0.592042,0 -0.592041,0 0,1.7866511 0,1.7866488 -1.303829,0 -1.303706,0 0,-5.166796 z m 5.070186,-1.0316269 c 0.312962,-0.16669 0.4995,-0.3797716 0.580869,-0.6634501 C 34.41738,3.4228417 34.220762,3.0396261 33.985524,2.8774892 33.712152,2.689107 33.460398,2.6547224 32.345295,2.6534387 l -1.026085,-0.00122 0,0.8730109 0,0.8730109 1.1468,-0.015909 c 1.007139,-0.013954 1.167447,-0.026876 1.315852,-0.1059238 z m 6.2788,5.8000529 0,-0.3983747 1.823369,-4.7563513 1.823367,-4.75635002 1.284274,-0.0128493 1.284155,-0.0128606 0.07287,0.18185578 c 0.04008,0.1000212 0.868207,2.25948684 1.840491,4.79880834 l 1.767867,4.6169488 0,0.369509 0,0.369509 -1.383739,-0.01282 -1.383738,-0.01282 -0.366519,-0.9785099 -0.366398,-0.9785085 -1.465714,0.012751 -1.465834,0.012751 -0.362148,0.9778285 -0.362148,0.9778279 -1.371351,0 -1.37135,0 0,-0.398374 z M 45.43871,5.7064633 C 45.36948,5.5271942 45.247557,5.2001916 45.166189,4.9797906 c -0.08137,-0.2204 -0.162978,-0.3833723 -0.181438,-0.3621585 -0.03279,0.038303 -0.53132,1.340565 -0.53132,1.3893116 0,0.014015 0.24969,0.025466 0.55488,0.025466 l 0.555001,0 -0.124602,-0.3259424 z m 19.102488,-0.3983743 0,-5.16679837 1.303828,0 1.303707,0 0,3.88716937 0,3.8871695 2.293721,0 2.293601,0 0,1.2796289 0,1.2796266 -3.597428,0 -3.597429,0 0,-5.166796 z m 10.188706,0 0,-5.16679837 3.645764,0 3.645763,0 0,1.25548327 0,1.2554845 -2.341935,0 -2.342057,0 0,0.6277417 0,0.6277404 1.376209,0 1.376208,0 0,1.2554847 0,1.255482 -1.376208,0 -1.376209,0 0,0.7726068 0,0.7726042 2.486819,0 2.48694,0 0,1.2554846 0,1.2554822 -3.790647,0 -3.790647,0 0,-5.166796 z m 67.796056,4.5852835 c -1.8921,-0.4875525 -3.04911,-2.2776392 -3.05724,-4.7301473 0,-1.0627911 0.17135,-1.8636143 0.59568,-2.7282625 0.5482,-1.117322 1.47081,-1.89577627 2.58227,-2.17881233 0.49379,-0.12574117 1.55838,-0.11532364 2.05921,0.0201476 0.83287,0.22534025 1.45685,0.66826765 1.96316,1.39351473 0.18763,0.2688283 0.15641,0.318006 -0.40563,0.64048 -0.28139,0.1615235 -0.55852,0.2936661 -0.6156,0.2936515 -0.0656,-1.58e-5 -0.20221,-0.1093608 -0.37526,-0.3017981 -0.45712,-0.5083167 -1.01018,-0.7605071 -1.66792,-0.7605071 -1.27031,0 -2.17532,0.8015225 -2.5354,2.2453845 -0.0911,0.3669397 -0.10809,0.5661305 -0.1093,1.2796265 0,0.9223685 0.0534,1.2733285 0.2894,1.8656047 0.37697,0.9481389 1.07952,1.5455474 1.96825,1.6735875 1.30481,0.1879802 2.39829,-0.6764215 2.39829,-1.895882 l 0,-0.2912518 -0.84501,0 -0.84501,0 0,-0.6760279 0,-0.6760305 1.59347,0 1.59348,0 0,0.6156701 c 0,1.7506623 -0.26391,2.5975336 -1.03763,3.3742353 -0.31077,0.311923 -0.47473,0.4329084 -0.79873,0.5895244 -0.57614,0.2784702 -0.90792,0.3448684 -1.71153,0.3425556 -0.50593,-0.00144 -0.76716,-0.025418 -1.03822,-0.095266 z m 16.6593,-0.00124 c -1.5196,-0.3967838 -2.47489,-1.4969713 -2.91113,-3.3526989 -0.14253,-0.6062848 -0.15223,-2.2078023 -0.0171,-2.8228822 0.37404,-1.7026297 1.15215,-2.74397614 2.44536,-3.27264583 0.5402,-0.22083578 0.86235,-0.27478626 1.61764,-0.27091704 0.79295,0.004013 1.22242,0.0976176 1.83493,0.39971136 0.77077,0.38015286 1.26752,0.89845971 1.69224,1.76569351 0.5725,1.1689856 0.74098,2.6778921 0.46005,4.1204825 -0.3584,1.8402543 -1.38032,3.0415285 -2.92314,3.4361161 -0.52945,0.135409 -1.67501,0.13392 -2.19885,-0.00279 z m 2.14897,-1.4648541 c 0.68806,-0.340047 1.15533,-0.9624074 1.45546,-1.938515 0.12662,-0.4118122 0.13288,-0.4789188 0.13288,-1.4221089 0,-0.9391289 -0.007,-1.011664 -0.13061,-1.4142695 -0.4411,-1.4330194 -1.24877,-2.1185383 -2.49609,-2.1185383 -0.75742,0 -1.29621,0.2288391 -1.77678,0.7546706 -0.89348,0.9776099 -1.17447,2.8904649 -0.65729,4.4743632 0.29231,0.8952633 0.94837,1.5918361 1.70458,1.8098774 0.14412,0.041558 0.42889,0.059727 0.8085,0.05159 0.57047,-0.012229 0.59596,-0.017463 0.95935,-0.1970716 z m 6.71478,1.4873248 C 167.05406,9.6945824 166.3627,9.1726376 165.94907,8.3293076 165.53862,7.4924373 165.51186,7.1901802 165.51138,3.3873649 l 0,-3.10378576 0.71223,0.0133588 0.71226,0.0133589 0.0249,3.40429296 c 0.0247,3.3671684 0.0261,3.4073714 0.13187,3.6868273 0.14643,0.3867703 0.26998,0.5744227 0.52732,0.8009324 0.38354,0.337606 0.64957,0.4110568 1.48887,0.4110568 0.64921,0 0.75411,-0.011901 1.0116,-0.1145221 0.51352,-0.204702 0.88799,-0.6540441 1.07262,-1.2870419 0.0747,-0.2559382 0.0853,-0.6362282 0.10119,-3.6059005 l 0.0177,-3.31978931 0.69956,0 0.69955,0 -0.017,3.44050881 c -0.0168,3.3803052 -0.019,3.4476886 -0.12508,3.8509535 -0.25051,0.9513985 -0.79008,1.6697973 -1.52393,2.0289366 -0.61433,0.3006596 -0.85689,0.3496823 -1.81546,0.3669374 -0.62895,0.011296 -0.93071,-0.00371 -1.18013,-0.058892 z m 54.69991,0.027161 c -0.35795,-0.070828 -0.88407,-0.275589 -1.21827,-0.4741264 -2.1336,-1.2675537 -2.71753,-5.1070794 -1.14614,-7.5362131 0.84016,-1.29872116 2.24445,-1.94041924 3.82374,-1.74725939 1.01749,0.12444665 1.78372,0.55158502 2.3831,1.32848839 0.30949,0.4011603 0.28392,0.4679621 -0.31014,0.8105642 -0.26559,0.1531622 -0.53253,0.2789884 -0.59319,0.2796139 -0.0743,7.226e-4 -0.20678,-0.1020008 -0.40642,-0.3154084 -0.16285,-0.1741015 -0.39105,-0.3721885 -0.50709,-0.4401937 -0.91669,-0.5372255 -2.16202,-0.3513656 -2.89387,0.4319039 -0.34589,0.3701907 -0.55237,0.7480105 -0.71444,1.3072733 -0.34028,1.1742722 -0.24091,2.6367917 0.24721,3.6388629 0.23724,0.4870021 0.68547,0.9512843 1.12549,1.1657784 0.63149,0.3078362 1.45611,0.3171438 2.05641,0.023208 0.63618,-0.3115063 1.08229,-1.0554254 1.08229,-1.8047766 l 0,-0.190776 -0.86918,0 -0.86918,0 0,-0.676028 0,-0.6760304 1.5989,0 1.59888,0 -0.0229,1.0261159 c -0.0189,0.8449015 -0.0411,1.0933003 -0.12572,1.4065361 -0.34071,1.2611887 -1.15721,2.0913359 -2.35929,2.3987786 -0.28288,0.072344 -0.51802,0.092707 -1.02348,0.088643 -0.36094,-0.00289 -0.74643,-0.023138 -0.85666,-0.044946 z m -122.28153,-4.876375 0,-4.78178644 0.70921,0.0133589 0.7091,0.0133589 1.24732,2.89727064 c 0.68602,1.5934985 1.31584,3.0765385 1.39963,3.2956437 0.0838,0.2191066 0.16481,0.3982371 0.18023,0.3980684 0.0158,-1.458e-4 0.12144,-0.2337601 0.23451,-0.5190938 0.11415,-0.2853338 0.74372,-1.7682353 1.40025,-3.2953377 l 1.1938,-2.77655124 0.71228,-0.0133589 0.71214,-0.0133589 0,4.78178644 0,4.7817854 -0.70012,0 -0.70013,0 0,-3.1869959 c 0,-1.8035987 -0.0183,-3.186997 -0.0425,-3.186997 -0.0231,0 -0.13359,0.2444568 -0.24484,0.5432381 -0.11173,0.2987814 -0.70571,1.7121571 -1.32083,3.1408349 -1.07029,2.4857511 -1.12348,2.5969866 -1.23812,2.5833988 -0.10931,-0.012946 -0.21193,-0.2282673 -1.17085,-2.4527319 -0.57806,-1.3411952 -1.18733,-2.7805759 -1.35382,-3.1986254 -0.16662,-0.4180496 -0.31369,-0.7602959 -0.32705,-0.7605484 -0.0134,-1.811e-4 -0.0183,1.4662914 -0.0122,3.2589845 l 0.0134,3.2594423 -0.70217,0 -0.70206,0 0,-4.7817854 z m 9.9954,9.036e-4 0,-4.78086601 2.95766,0.0124356 2.95766,0.0124356 0.0134,0.66395765 0.0133,0.66395876 -2.2709,0 -2.27089,0 0,1.3030629 0,1.3030628 1.46074,0.012788 1.46074,0.012788 0.0134,0.6639564 0.0134,0.6639577 -1.47422,0 -1.4741,0 0,1.4727791 0,1.4727791 2.41432,0 2.41444,0 0,0.651886 0,0.6518839 -3.11456,0 -3.11457,0 0,-4.7808651 z m 7.24319,-0.00608 0,-4.78695884 1.65396,0.0266568 c 1.77041,0.0285395 2.04123,0.0565683 2.7161,0.28116582 1.52729,0.50826102 2.51245,1.78994722 2.7795,3.61618192 0.0923,0.634607 0.0352,1.7939305 -0.11901,2.3904816 -0.38729,1.497317 -1.34039,2.5572686 -2.70834,3.0117491 -0.64111,0.2129837 -1.02718,0.2476795 -2.75593,0.2476795 l -1.56591,0 0,-4.7869572 z m 3.64127,3.3640292 c 0.45822,-0.1232382 0.91715,-0.3919159 1.2102,-0.7085459 1.19914,-1.2951581 1.17861,-4.0973777 -0.0389,-5.3224041 -0.1637,-0.1646131 -0.43295,-0.3702914 -0.59835,-0.4570635 -0.45567,-0.2389299 -0.81866,-0.2961886 -1.88422,-0.2971492 l -0.92953,-9.023e-4 0,3.459799 0,3.4597979 0.97787,-0.02843 c 0.66017,-0.019201 1.07041,-0.053351 1.26302,-0.1051709 z m 4.80909,-3.3575635 0,-4.78049555 0.70025,0 0.70013,0 0,4.78049555 0,4.7804946 -0.70013,0 -0.70025,0 0,-4.7804946 z m 2.4131,4.64903 c 0,-0.073766 0.75319,-2.2261275 1.67545,-4.7830282 l 1.6769,-4.64890926 0.72247,0.0132743 0.72247,0.0132743 1.68007,4.65977636 c 0.92395,2.5628768 1.68103,4.7092478 1.68237,4.7697141 l 0,0.1099315 -0.70608,-0.013359 -0.70608,-0.013359 -0.36786,-1.0744052 -0.36797,-1.0744036 -1.93873,0 -1.93875,0 -0.18362,0.5190939 c -0.10078,0.2855014 -0.27349,0.768984 -0.38328,1.0744047 l -0.19977,0.5553102 -0.68423,0.0134 -0.68433,0.0134 0,-0.1341167 z m 5.5545,-3.3183603 c 0,-0.011781 -0.28065,-0.8103237 -0.62373,-1.7745783 -0.34297,-0.9642522 -0.66358,-1.8889657 -0.71228,-2.0549184 -0.0486,-0.1659539 -0.11294,-0.3017628 -0.14257,-0.3018004 -0.0291,-3.66e-5 -0.0814,0.1031551 -0.11538,0.2293004 -0.034,0.126153 -0.3517,1.0369938 -0.70644,2.0240898 -0.35486,0.9870983 -0.64511,1.8182509 -0.64511,1.8470102 0,0.036385 0.44801,0.052282 1.47275,0.052282 0.81005,0 1.47288,-0.00959 1.47288,-0.021387 z m 14.09995,-1.3358869 0,-4.78571404 2.32991,0.0239129 c 2.57622,0.0264382 2.71052,0.0401374 3.3437,0.3408279 0.96523,0.45837514 1.47413,1.40379614 1.40787,2.61539914 -0.0145,0.265582 -0.0581,0.5825292 -0.0967,0.7043233 -0.23163,0.7302056 -0.74971,1.3474934 -1.38847,1.6543654 -0.20198,0.097034 -0.40297,0.1764211 -0.44667,0.1764211 -0.0437,0 -0.0794,0.030009 -0.0794,0.066697 0,0.036688 0.41286,0.9084436 0.91746,1.937246 0.50463,1.0287987 0.91748,1.9119612 0.91748,1.9625845 0,0.08725 -0.0402,0.091346 -0.77237,0.078771 l -0.77235,-0.013276 -0.93225,-1.9315137 -0.93208,-1.9315125 -1.04795,-0.013018 -1.04783,-0.013018 0,1.9565992 0,1.9565993 -0.70012,0 -0.70026,0 0,-4.785714 z M 153.1266,4.414291 c 0.49186,-0.2516597 0.72055,-0.6614681 0.71388,-1.279125 -0.007,-0.6391878 -0.22421,-1.0285861 -0.71388,-1.2791261 l -0.28405,-0.1453642 -1.60915,-0.014501 -1.60914,-0.014476 0,1.4534683 0,1.4534657 1.60914,-0.014476 1.60915,-0.014476 0.28405,-0.1453666 z m 20.97959,0.6473039 0,-4.78558046 2.23334,0.0235962 c 2.47017,0.0260988 2.61665,0.0414733 3.2471,0.34087639 0.39063,0.18551002 0.85963,0.59557947 1.08776,0.95109367 0.35886,0.5592384 0.51985,1.5472391 0.36801,2.2586609 -0.23675,1.1093346 -1.00387,1.8937797 -2.13485,2.1830325 -0.33349,0.08529 -0.53673,0.095735 -1.86351,0.095735 l -1.4892,0 0,1.8590806 0,1.8590811 -0.72432,0 -0.72433,0 0,-4.7855785 z m 4.70299,-0.4260381 c 0.44636,-0.2214209 0.70149,-0.5692621 0.79718,-1.0868415 0.10833,-0.5862975 -0.11148,-1.2437943 -0.52152,-1.5591395 -0.36086,-0.2775796 -0.53847,-0.3030368 -2.11428,-0.3030368 l -1.41572,0 0,1.5477528 0,1.5477529 1.50898,-0.01461 c 1.48637,-0.014391 1.51256,-0.016371 1.74536,-0.1318692 z m 5.2926,0.4298345 0,-4.78178655 0.70603,0.0133588 0.70602,0.0133589 1.28791,2.99384705 c 0.70836,1.6466147 1.33851,3.1296546 1.40039,3.2956425 0.0618,0.1659891 0.12719,0.3017992 0.14517,0.3017992 0.018,0 0.0609,-0.081489 0.0952,-0.1810786 0.0344,-0.099596 0.66308,-1.5880651 1.39707,-3.3077165 l 1.33456,-3.126638 0.71315,0 0.71317,0 0,4.7804957 0,4.7804947 -0.70018,0 -0.70018,0 0,-3.2111393 c 0,-1.766127 -0.017,-3.2111415 -0.0378,-3.2111415 -0.0207,0 -0.11939,0.2227292 -0.21911,0.4949506 -0.0998,0.2722227 -0.69666,1.6954561 -1.32643,3.1627422 -1.07809,2.5118945 -1.15204,2.6677379 -1.26573,2.6668445 -0.11344,-9.026e-4 -0.19287,-0.1695075 -1.3142,-2.7885124 -0.65638,-1.5331601 -1.26279,-2.9668316 -1.34753,-3.1859369 -0.0848,-0.2191065 -0.16696,-0.3983829 -0.18273,-0.3983926 -0.0157,-8.4e-6 -0.022,1.4558692 -0.0137,3.2352847 l 0.0148,3.2353007 -0.70298,0 -0.70298,0 0,-4.7817856 z m 9.41649,4.6731383 c 0,-0.05975 0.75789,-2.2055467 1.68374,-4.7684236 l 1.68338,-4.65977498 0.72221,-0.0132856 0.7222,-0.0132856 1.67437,4.65154948 c 0.92091,2.5583544 1.67438,4.7101198 1.67438,4.7817077 l 0,0.1301554 -0.68851,0 -0.68852,0 -0.36799,-1.0744045 -0.36801,-1.0744023 -1.94854,0 -1.94849,0 -0.38109,1.0744023 -0.38109,1.0744045 -0.6942,0 c -0.68783,0 -0.6942,-0.00103 -0.69384,-0.1086441 z m 5.55248,-3.380148 c 0,-0.033203 -0.29036,-0.8752164 -0.64494,-1.8711534 -0.35457,-0.9959358 -0.67364,-1.9248732 -0.70904,-2.0643049 -0.0354,-0.1394303 -0.0765,-0.2534011 -0.0915,-0.2532699 -0.015,1.469e-4 -0.0804,0.1794026 -0.14556,0.3983767 -0.0651,0.2189728 -0.39651,1.165567 -0.73637,2.1035447 -0.33987,0.9379753 -0.61794,1.7148046 -0.61794,1.7262884 0,0.011537 0.66275,0.020876 1.47278,0.020876 1.14618,0 1.47273,-0.013384 1.47252,-0.060358 z m 3.52528,-1.2916994 0,-4.78049553 0.71224,0.001826 0.71225,0.001826 2.02808,3.21281133 c 1.11546,1.7670451 2.09248,3.3416542 2.1712,3.49913 0.0787,0.1574771 0.15475,0.2863285 0.169,0.2863358 0.0143,6.1e-6 0.0259,-1.5699505 0.0259,-3.4887964 l 0,-3.48880968 0.71224,-0.0133589 0.71225,-0.0133589 0,4.78311158 0,4.7831116 -0.68428,-0.0134 -0.68425,-0.0134 -1.97262,-3.0904205 C 205.4131,5.0330637 204.4227,3.4632493 204.29712,3.2443188 204.17154,3.0253872 204.0525,2.8461194 204.03259,2.8459446 c -0.0199,-1.811e-4 -0.0362,1.5750705 -0.0362,3.5005472 l 0,3.5008683 -0.70018,0 -0.70016,0 0,-4.7804948 z m 8.16361,4.6477034 c 0.001,-0.073036 0.75782,-2.2188258 1.68044,-4.7684227 l 1.67747,-4.63563188 0.72261,-0.0132743 0.72259,-0.0132743 1.66407,4.62326758 c 0.91524,2.542796 1.67239,4.6945578 1.68256,4.7816907 l 0.0185,0.1584229 -0.69422,0 -0.6942,0 -0.13098,-0.3742298 c -0.072,-0.2058257 -0.24244,-0.6947406 -0.37869,-1.0864755 l -0.24768,-0.712244 -1.93833,3.608e-4 -1.93831,3.606e-4 -0.38142,1.0861934 -0.3814,1.0861942 -0.693,0 -0.69297,0 0.002,-0.1327922 z m 5.55011,-3.3474337 c 0,-0.028479 -0.29284,-0.8737445 -0.65075,-1.8783563 -0.35793,-1.0046131 -0.67751,-1.9265418 -0.71019,-2.0487319 -0.0327,-0.1221902 -0.0758,-0.2221621 -0.0957,-0.2221621 -0.0199,0 -0.0825,0.157539 -0.13931,0.3500855 -0.0567,0.1925479 -0.38356,1.1247059 -0.72636,2.0714629 -0.3428,0.9467581 -0.62327,1.734453 -0.62327,1.7504339 0,0.015982 0.66276,0.029062 1.47278,0.029062 1.01603,0 1.47277,-0.016055 1.47277,-0.051784 z m 11.93894,-1.2881969 0.0123,-4.76842398 2.95762,-0.0124356 2.95763,-0.0124356 0,0.67639964 0,0.67640204 -2.24537,0 -2.2454,0 0,1.3037708 0,1.3037722 1.44863,0 1.44865,0 0,0.6760292 0,0.6760292 -1.44865,0 -1.44863,0 0,1.472779 0,1.4727779 2.39026,0 2.39022,0 0,0.6518873 0,0.6518837 -3.11479,0 -3.1148,0 0.0123,-4.7684217 z m 7.23134,-0.012023 0,-4.78049561 0.71508,0 0.71505,0 1.31198,3.05420601 c 0.72162,1.6798128 1.3471,3.1574193 1.39001,3.2835721 0.0429,0.1261518 0.0994,0.2293662 0.12562,0.2293662 0.0262,0 0.0837,-0.092346 0.12767,-0.2052218 0.0439,-0.1128705 0.67071,-1.5850484 1.39267,-3.2715006 l 1.31267,-3.06627756 0.70395,-0.0133588 0.70396,-0.0133589 0,4.78178656 0,4.781785 -0.70403,0 -0.70403,0 0.0159,-3.2352976 c 0.008,-1.7794142 0.005,-3.2352919 -0.008,-3.2352834 -0.0134,7.3e-6 -0.12914,0.2770658 -0.25722,0.6156835 -0.12835,0.3386229 -0.73587,1.7836349 -1.35035,3.2111443 -0.95458,2.2175932 -1.13154,2.5953528 -1.21556,2.5946586 -0.0838,-7.221e-4 -0.27444,-0.4122017 -1.29183,-2.7886212 -0.65643,-1.5332949 -1.26281,-2.9670794 -1.34755,-3.1861859 -0.0847,-0.2191052 -0.16808,-0.3983743 -0.18527,-0.3983743 -0.0171,0 -0.0219,1.4450144 -0.0109,3.2111415 l 0.0207,3.2111386 -0.73047,0 -0.73049,0 0,-4.780494 z m 9.99558,0 0,-4.78049561 2.9697,0 2.9697,0 0,0.67603034 0,0.67603047 -2.24538,0 -2.24538,0 0,1.3037709 0,1.3037721 1.44864,0 1.44861,0 0,0.6760279 0,0.6760305 -1.44861,0 -1.44864,0 0,1.4727778 0,1.4727792 2.39023,0 2.39027,0 0,0.651886 0,0.6518846 -3.11459,0 -3.11455,0 0,-4.7804942 z m 7.24318,0 0,-4.78049561 0.71224,0.001083 0.71225,0.001083 2.02809,3.21274091 c 1.11544,1.7670087 2.08819,3.3310132 2.16166,3.4755662 0.0735,0.1445553 0.14949,0.2628326 0.169,0.2628398 0.0196,8.6e-6 0.0355,-1.5590847 0.0355,-3.464652 l 0,-3.4646653 0.71224,-0.0133589 0.71224,-0.0133588 0,4.7831128 0,4.7831115 -0.68273,-0.0134 -0.68276,-0.0134 -2.04769,-3.21114 c -1.12622,-1.7661282 -2.11491,-3.3360859 -2.19709,-3.4887952 -0.0822,-0.1527103 -0.16813,-0.2776548 -0.19099,-0.2776548 -0.0228,0 -0.0416,1.5753899 -0.0416,3.5008667 l 0,3.5008672 -0.70017,0 -0.70017,0 0,-4.7804937 z m 10.81646,0.7001747 0,-4.080322 -1.35206,0 -1.35206,0 0,-0.70017352 0,-0.70017479 3.4043,0 3.40428,0 0,0.70017479 0,0.70017352 -1.35204,0 -1.35206,0 0,4.080322 0,4.0803195 -0.70018,0 -0.70018,0 0,-4.0803195 z"
   id="path3684"
   inkscape:connector-curvature="0" /></svg>